<svg width="64" height="64" viewBox="0 0 64 64" fill="none" xmlns="http://www.w3.org/2000/svg">
<path d="M0 0H64V64H0V0Z" fill="#BA26E7"/>
<path d="M9.4128 30.996L8.83905 32L9.4128 33.0041L19.85 51.2375L20.4322 52.2585H43.6437L44.2259 51.2375L54.6631 33.0041L55.2369 32L54.6631 30.996L44.2259 12.7625L43.6437 11.7416H20.4322L19.85 12.7625L9.4128 30.996Z" fill="white"/>
<path d="M18 17H45.5556V48H18V17Z" fill="#BA26E7"/>
<path d="M24.8889 41.1111H31.7778V44.5556H24.8889V41.1111Z" fill="white"/>
<path opacity="0.5" d="M33.5 41.1111H40.3889V44.5556H33.5V41.1111Z" fill="white"/>
<path d="M24.8889 20.4445H36.9445V22.1667H24.8889V20.4445ZM24.8889 32.5H26.6111V34.2222H24.8889V32.5ZM24.8889 35.9445H26.6111V37.6667H24.8889V35.9445Z" fill="white"/>
<path opacity="0.5" d="M28.3334 32.5H42.1111V34.2222H28.3334V32.5ZM28.3334 35.9444H42.1111V37.6667H28.3334V35.9444ZM24.8889 23.8889H42.1111V30.7778H24.8889V23.8889Z" fill="white"/>
<path opacity="0.5" d="M19.7222 17H21.4445V48H19.7222V17Z" fill="white"/>
<path d="M42.6377 13.5L42.7822 13.7529L42.7832 13.7559L53.1299 31.7539V31.7549L53.2705 32L53.1309 32.2441L42.7832 50.2441L42.7822 50.2471L42.6377 50.5H21.3623L21.2178 50.2471L21.2168 50.2441L10.8691 32.2441L10.7285 32L10.8701 31.7549L10.8691 31.7539L21.2168 13.7559L21.2178 13.7529L21.3623 13.5H42.6377Z" stroke="white" stroke-width="3"/>
</svg>
