<svg width="32" height="32" viewBox="0 0 32 32" fill="none" xmlns="http://www.w3.org/2000/svg">
<g clip-path="url(#clip0_53_308)">
<path d="M28 18L20 20L12 18L4 20V4L12 2L20 4L28 2V18Z" fill="#CECECE"/>
<path d="M4 4V8L8 7V3L4 4ZM4 12V16L8 15V11L4 12ZM12 6L8 7V11L12 10V6ZM8 19L12 18V14L8 15V19ZM12 10V14L16 15V11L12 10ZM16 3L12 2V6L16 7V3ZM20 12V8L16 7V11L20 12ZM16 19L20 20V16L16 15V19ZM20 12V16L24 15V11L20 12ZM24 3L20 4V8L24 7V3ZM28 10V6L24 7V11L28 10ZM28 18V14L24 15V19L28 18Z" fill="#666666"/>
<path opacity="0.3" d="M12 4L19.6 6H20.4L26 4.6V16.4L20 18L12.4 16H11.6L6 17.4V5.6L12 4ZM28 2L20 4L12 2L4 4V20L12 18L20 20L28 18V2Z" fill="#212121"/>
<path d="M4 2H6V30H4V2Z" fill="#333333"/>
<path d="M23 11.25C18.443 11.25 14.75 12.5925 14.75 14.25V27.75C14.75 29.4075 18.443 30.75 23 30.75C27.557 30.75 31.25 29.4075 31.25 27.75V14.25C31.25 12.5925 27.557 11.25 23 11.25Z" fill="#FFC857"/>
<path d="M14 14.25V27.75C14 30.213 18.5285 31.5 23 31.5C27.4715 31.5 32 30.213 32 27.75V14.25C32 9.32699 14 9.32699 14 14.25ZM23 12C27.509 12 30.5 13.3545 30.5 14.25C30.497 15.1455 27.5075 16.5 23 16.5C18.4925 16.5 15.503 15.1455 15.5 14.25C15.5 13.3545 18.491 12 23 12ZM30.5 18.75C30.497 19.6455 27.5075 21 23 21C18.4925 21 15.503 19.6455 15.5 18.75V16.398C17.195 17.4495 20.1005 17.9985 23 17.9985C25.8995 17.9985 28.805 17.4495 30.5 16.398V18.75ZM30.5 20.898V23.2515C30.497 24.147 27.5075 25.5 23 25.5C18.4925 25.5 15.503 24.147 15.5 23.25V20.8995C17.195 21.951 20.1005 22.5 23 22.5C25.8995 22.5 28.805 21.951 30.5 20.898ZM23 30C18.491 30 15.5 28.647 15.5 27.75V25.398C17.195 26.451 20.1005 27 23 27C25.8995 27 28.805 26.451 30.5 25.398V27.75C30.5 28.647 27.509 30 23 30Z" fill="#E8A33D"/>
</g>
<defs>
<clipPath id="clip0_53_308">
<rect width="32" height="32" fill="white"/>
</clipPath>
</defs>
</svg>
