<svg width="32" height="32" viewBox="0 0 32 32" fill="none" xmlns="http://www.w3.org/2000/svg">
<g clip-path="url(#clip0_54_459)">
<path d="M16 3C9.924 3 5 4.79 5 7V25C5 27.21 9.924 29 16 29C22.076 29 27 27.21 27 25V7C27 4.79 22.076 3 16 3Z" fill="#FFC857"/>
<path d="M4 7V25C4 28.284 10.038 30 16 30C21.962 30 28 28.284 28 25V7C28 0.435996 4 0.435996 4 7ZM16 4C22.012 4 26 5.806 26 7C25.996 8.194 22.01 10 16 10C9.99 10 6.004 8.194 6 7C6 5.806 9.988 4 16 4ZM26 13C25.996 14.194 22.01 16 16 16C9.99 16 6.004 14.194 6 13V9.864C8.26 11.266 12.134 11.998 16 11.998C19.866 11.998 23.74 11.266 26 9.864V13ZM26 15.864V19.002C25.996 20.196 22.01 22 16 22C9.99 22 6.004 20.196 6 19V15.866C8.26 17.268 12.134 18 16 18C19.866 18 23.74 17.268 26 15.864ZM16 28C9.988 28 6 26.196 6 25V21.864C8.26 23.268 12.134 24 16 24C19.866 24 23.74 23.268 26 21.864V25C26 26.196 22.012 28 16 28Z" fill="#E8A33D"/>
<path d="M32 27.5L26 29L20 27.5L14 29V17L20 15.5L26 17L32 15.5V27.5Z" fill="#CECECE"/>
<path d="M14 17V20L17 19.25V16.25L14 17ZM14 23V26L17 25.25V22.25L14 23ZM20 18.5L17 19.25V22.25L20 21.5V18.5ZM17 28.25L20 27.5V24.5L17 25.25V28.25ZM20 21.5V24.5L23 25.25V22.25L20 21.5ZM23 16.25L20 15.5V18.5L23 19.25V16.25ZM26 23V20L23 19.25V22.25L26 23ZM23 28.25L26 29V26L23 25.25V28.25ZM26 23V26L29 25.25V22.25L26 23ZM29 16.25L26 17V20L29 19.25V16.25ZM32 21.5V18.5L29 19.25V22.25L32 21.5ZM32 27.5V24.5L29 25.25V28.25L32 27.5Z" fill="#666666"/>
<path opacity="0.3" d="M20 17L25.7 18.5H26.3L30.5 17.45V26.3L26 27.5L20.3 26H19.7L15.5 27.05V18.2L20 17ZM32 15.5L26 17L20 15.5L14 17V29L20 27.5L26 29L32 27.5V15.5Z" fill="#212121"/>
<path d="M14 15.5H15.5V36.5H14V15.5Z" fill="#333333"/>
</g>
<defs>
<clipPath id="clip0_54_459">
<rect width="32" height="32" fill="white"/>
</clipPath>
</defs>
</svg>
