<svg width="32" height="32" viewBox="0 0 32 32" fill="none" xmlns="http://www.w3.org/2000/svg">
<g clip-path="url(#clip0_54_407)">
<path d="M23.466 2.82401C22.236 2.82401 21.006 3.29601 20.064 4.23801L16.088 8.214C15.6396 8.66005 15.2838 9.19031 15.041 9.77431C14.7982 10.3583 14.6732 10.9845 14.6732 11.617C14.6732 12.2495 14.7982 12.8757 15.041 13.4597C15.2838 14.0437 15.6396 14.574 16.088 15.02L16.982 15.914C17.428 16.3624 17.9583 16.7182 18.5423 16.961C19.1263 17.2038 19.7525 17.3288 20.385 17.3288C21.0174 17.3288 21.6437 17.2038 22.2277 16.961C22.8117 16.7182 23.3419 16.3624 23.788 15.914L27.764 11.938C28.2124 11.492 28.5682 10.9617 28.811 10.3777C29.0538 9.7937 29.1788 9.16747 29.1788 8.53501C29.1788 7.90254 29.0538 7.27631 28.811 6.69231C28.5682 6.10831 28.2124 5.57805 27.764 5.13201L26.87 4.23801C26.4235 3.79 25.893 3.43449 25.3089 3.19185C24.7247 2.94921 24.0985 2.82421 23.466 2.82401ZM23.102 5.06601C23.974 5.02201 24.974 5.42601 25.774 6.22601C27.054 7.50601 27.316 9.30201 26.364 10.258L22.11 14.512C21.156 15.466 19.354 15.206 18.074 13.926C16.794 12.646 16.534 10.848 17.488 9.89001L21.742 5.63601C22.1 5.27801 22.578 5.09201 23.102 5.06601ZM11.616 14.672C10.386 14.672 9.15598 15.144 8.21398 16.086L4.23798 20.062C3.78959 20.5081 3.43377 21.0383 3.19097 21.6223C2.94817 22.2063 2.82318 22.8325 2.82318 23.465C2.82318 24.0975 2.94817 24.7237 3.19097 25.3077C3.43377 25.8917 3.78959 26.422 4.23798 26.868L5.13198 27.762C5.57802 28.2104 6.10829 28.5662 6.69229 28.809C7.27629 29.0518 7.90252 29.1768 8.53498 29.1768C9.16744 29.1768 9.79367 29.0518 10.3777 28.809C10.9617 28.5662 11.4919 28.2104 11.938 27.762L15.914 23.786C16.3624 23.34 16.7182 22.8097 16.961 22.2257C17.2038 21.6417 17.3288 21.0155 17.3288 20.383C17.3288 19.7505 17.2038 19.1243 16.961 18.5403C16.7182 17.9563 16.3624 17.426 15.914 16.98L15.02 16.086C14.5733 15.6383 14.0427 15.2829 13.4587 15.0403C12.8746 14.7977 12.2484 14.6725 11.616 14.672ZM11.25 16.916C12.122 16.872 13.126 17.276 13.926 18.076C15.206 19.356 15.466 21.154 14.512 22.112L10.258 26.366C9.30398 27.32 7.50598 27.056 6.22598 25.776C4.94598 24.496 4.68398 22.7 5.63598 21.744L9.88998 17.49C10.246 17.132 10.726 16.942 11.25 16.916Z" fill="#666666"/>
<path opacity="0.3" d="M16.036 15.07L16.93 15.964C17.5872 16.6217 18.4219 17.0735 19.332 17.264L21.964 14.632C20.99 15.49 19.264 15.218 18.022 13.976C18.658 13.562 15.732 14.378 16.036 15.07ZM15.03 16.094L15.924 16.988C16.61 17.674 17.038 18.512 17.224 19.39L14.592 22.022C15.45 21.048 15.178 19.32 13.936 18.08C13.52 18.714 14.336 15.79 15.03 16.094Z" fill="#212121"/>
<path d="M10.004 18.916L18.93 9.99C19.442 9.478 20.548 9.752 21.398 10.602C22.248 11.452 22.522 12.558 22.01 13.07L13.084 21.996C12.572 22.508 11.466 22.234 10.616 21.384C9.76601 20.534 9.49201 19.428 10.004 18.916Z" fill="#999999"/>
<path d="M32 27.5L26 29L20 27.5L14 29V17L20 15.5L26 17L32 15.5V27.5Z" fill="#CECECE"/>
<path d="M14 17V20L17 19.25V16.25L14 17ZM14 23V26L17 25.25V22.25L14 23ZM20 18.5L17 19.25V22.25L20 21.5V18.5ZM17 28.25L20 27.5V24.5L17 25.25V28.25ZM20 21.5V24.5L23 25.25V22.25L20 21.5ZM23 16.25L20 15.5V18.5L23 19.25V16.25ZM26 23V20L23 19.25V22.25L26 23ZM23 28.25L26 29V26L23 25.25V28.25ZM26 23V26L29 25.25V22.25L26 23ZM29 16.25L26 17V20L29 19.25V16.25ZM32 21.5V18.5L29 19.25V22.25L32 21.5ZM32 27.5V24.5L29 25.25V28.25L32 27.5Z" fill="#666666"/>
<path opacity="0.3" d="M20 17L25.7 18.5H26.3L30.5 17.45V26.3L26 27.5L20.3 26H19.7L15.5 27.05V18.2L20 17ZM32 15.5L26 17L20 15.5L14 17V29L20 27.5L26 29L32 27.5V15.5Z" fill="#212121"/>
<path d="M14 15.5H15.5V36.5H14V15.5Z" fill="#333333"/>
</g>
<defs>
<clipPath id="clip0_54_407">
<rect width="32" height="32" fill="white"/>
</clipPath>
</defs>
</svg>
