<svg width="32" height="32" viewBox="0 0 32 32" fill="none" xmlns="http://www.w3.org/2000/svg">
<g clip-path="url(#clip0_53_342)">
<path d="M28 18L20 20L12 18L4 20V4L12 2L20 4L28 2V18Z" fill="#CECECE"/>
<path d="M4 4V8L8 7V3L4 4ZM4 12V16L8 15V11L4 12ZM12 6L8 7V11L12 10V6ZM8 19L12 18V14L8 15V19ZM12 10V14L16 15V11L12 10ZM16 3L12 2V6L16 7V3ZM20 12V8L16 7V11L20 12ZM16 19L20 20V16L16 15V19ZM20 12V16L24 15V11L20 12ZM24 3L20 4V8L24 7V3ZM28 10V6L24 7V11L28 10ZM28 18V14L24 15V19L28 18Z" fill="#666666"/>
<path opacity="0.3" d="M12 4L19.6 6H20.4L26 4.6V16.4L20 18L12.4 16H11.6L6 17.4V5.6L12 4ZM28 2L20 4L12 2L4 4V20L12 18L20 20L28 18V2Z" fill="#212121"/>
<path d="M4 2H6V30H4V2Z" fill="#333333"/>
<path d="M27.5995 12.118C26.677 12.118 25.7545 12.472 25.048 13.1785L22.066 16.1605C21.7297 16.495 21.4629 16.8927 21.2808 17.3307C21.0987 17.7687 21.0049 18.2384 21.0049 18.7128C21.0049 19.1871 21.0987 19.6568 21.2808 20.0948C21.4629 20.5328 21.7297 20.9305 22.066 21.265L22.7365 21.9355C23.0711 22.2718 23.4688 22.5387 23.9068 22.7208C24.3448 22.9029 24.8144 22.9966 25.2888 22.9966C25.7631 22.9966 26.2328 22.9029 26.6708 22.7208C27.1088 22.5387 27.5065 22.2718 27.841 21.9355L30.823 18.9535C31.1593 18.619 31.4262 18.2213 31.6083 17.7833C31.7904 17.3453 31.8841 16.8756 31.8841 16.4013C31.8841 15.9269 31.7904 15.4572 31.6083 15.0192C31.4262 14.5812 31.1593 14.1835 30.823 13.849L30.1525 13.1785C29.8177 12.8425 29.4198 12.5759 28.9817 12.3939C28.5436 12.2119 28.0739 12.1182 27.5995 12.118ZM27.3265 13.7995C27.9805 13.7665 28.7305 14.0695 29.3305 14.6695C30.2905 15.6295 30.487 16.9765 29.773 17.6935L26.5825 20.884C25.867 21.5995 24.5155 21.4045 23.5555 20.4445C22.5955 19.4845 22.4005 18.136 23.116 17.4175L26.3065 14.227C26.575 13.9585 26.9335 13.819 27.3265 13.7995ZM18.712 21.004C17.7895 21.004 16.867 21.358 16.1605 22.0645L13.1785 25.0465C12.8422 25.381 12.5754 25.7787 12.3933 26.2167C12.2112 26.6547 12.1174 27.1244 12.1174 27.5988C12.1174 28.0731 12.2112 28.5428 12.3933 28.9808C12.5754 29.4188 12.8422 29.8165 13.1785 30.151L13.849 30.8215C14.1836 31.1578 14.5813 31.4247 15.0193 31.6068C15.4573 31.7889 15.9269 31.8826 16.4013 31.8826C16.8756 31.8826 17.3453 31.7889 17.7833 31.6068C18.2213 31.4247 18.619 31.1578 18.9535 30.8215L21.9355 27.8395C22.2718 27.505 22.5387 27.1073 22.7208 26.6693C22.9029 26.2313 22.9966 25.7616 22.9966 25.2873C22.9966 24.8129 22.9029 24.3432 22.7208 23.9052C22.5387 23.4672 22.2718 23.0695 21.9355 22.735L21.265 22.0645C20.93 21.7287 20.5321 21.4622 20.0941 21.2802C19.656 21.0983 19.1864 21.0044 18.712 21.004ZM18.4375 22.687C19.0915 22.654 19.8445 22.957 20.4445 23.557C21.4045 24.517 21.5995 25.8655 20.884 26.584L17.6935 29.7745C16.978 30.49 15.6295 30.292 14.6695 29.332C13.7095 28.372 13.513 27.025 14.227 26.308L17.4175 23.1175C17.6845 22.849 18.0445 22.7065 18.4375 22.687Z" fill="#666666"/>
<path opacity="0.3" d="M22.0271 21.3025L22.6976 21.973C23.1904 22.4663 23.8165 22.8051 24.4991 22.948L26.4731 20.974C25.7426 21.6175 24.4481 21.4135 23.5166 20.482C23.9936 20.1715 21.7991 20.7835 22.0271 21.3025ZM21.2726 22.0705L21.9431 22.741C22.4576 23.2555 22.7786 23.884 22.9181 24.5425L20.9441 26.5165C21.5876 25.786 21.3836 24.49 20.4521 23.56C20.1401 24.0355 20.7521 21.8425 21.2726 22.0705Z" fill="#212121"/>
<path d="M17.503 24.187L24.1975 17.4925C24.5815 17.1085 25.411 17.314 26.0485 17.9515C26.686 18.589 26.8915 19.4185 26.5075 19.8025L19.813 26.497C19.429 26.881 18.5995 26.6755 17.962 26.038C17.3245 25.4005 17.119 24.571 17.503 24.187Z" fill="#999999"/>
</g>
<defs>
<clipPath id="clip0_53_342">
<rect width="32" height="32" fill="white"/>
</clipPath>
</defs>
</svg>
