<svg width="32" height="32" viewBox="0 0 32 32" fill="none" xmlns="http://www.w3.org/2000/svg">
<g clip-path="url(#clip0_54_431)">
<path d="M2 2H30V30H2V2Z" fill="white"/>
<path d="M28 4V28H4V4H28ZM30 2H2V30H30V2Z" fill="#999999"/>
<path d="M6 6H14V14H6V6Z" fill="#666666"/>
<path d="M16 12H26V14H16V12ZM6 16H26V18H6V16ZM6 20H26V22H6V20ZM6 24H26V26H6V24Z" fill="#B9B9B9"/>
<path d="M16 6H26V10H16V6Z" fill="#666666"/>
<path d="M31 27.5L25 29L19 27.5L13 29V17L19 15.5L25 17L31 15.5V27.5Z" fill="#CECECE"/>
<path d="M13 17V20L16 19.25V16.25L13 17ZM13 23V26L16 25.25V22.25L13 23ZM19 18.5L16 19.25V22.25L19 21.5V18.5ZM16 28.25L19 27.5V24.5L16 25.25V28.25ZM19 21.5V24.5L22 25.25V22.25L19 21.5ZM22 16.25L19 15.5V18.5L22 19.25V16.25ZM25 23V20L22 19.25V22.25L25 23ZM22 28.25L25 29V26L22 25.25V28.25ZM25 23V26L28 25.25V22.25L25 23ZM28 16.25L25 17V20L28 19.25V16.25ZM31 21.5V18.5L28 19.25V22.25L31 21.5ZM31 27.5V24.5L28 25.25V28.25L31 27.5Z" fill="#666666"/>
<path opacity="0.3" d="M19 17L24.7 18.5H25.3L29.5 17.45V26.3L25 27.5L19.3 26H18.7L14.5 27.05V18.2L19 17ZM31 15.5L25 17L19 15.5L13 17V29L19 27.5L25 29L31 27.5V15.5Z" fill="#212121"/>
<path d="M13 15.5H14.5V36.5H13V15.5Z" fill="#333333"/>
</g>
<defs>
<clipPath id="clip0_54_431">
<rect width="32" height="32" fill="white"/>
</clipPath>
</defs>
</svg>
