<svg width="32" height="32" viewBox="0 0 32 32" fill="none" xmlns="http://www.w3.org/2000/svg">
<g clip-path="url(#clip0_54_419)">
<path d="M9 23H3V5H29V23H17.8L9 28.2V23Z" fill="white"/>
<path d="M28 6V22H17.4L17 22.2L10 26.4V22H4V6H28ZM30 4H2V24H8V30L18 24H30V4Z" fill="#999999"/>
<path d="M6 8H26V10H6V8ZM6 12H22V14H6V12ZM6 16H18V18H6V16Z" fill="#B9B9B9"/>
<path d="M32 27.5L26 29L20 27.5L14 29V17L20 15.5L26 17L32 15.5V27.5Z" fill="#CECECE"/>
<path d="M14 17V20L17 19.25V16.25L14 17ZM14 23V26L17 25.25V22.25L14 23ZM20 18.5L17 19.25V22.25L20 21.5V18.5ZM17 28.25L20 27.5V24.5L17 25.25V28.25ZM20 21.5V24.5L23 25.25V22.25L20 21.5ZM23 16.25L20 15.5V18.5L23 19.25V16.25ZM26 23V20L23 19.25V22.25L26 23ZM23 28.25L26 29V26L23 25.25V28.25ZM26 23V26L29 25.25V22.25L26 23ZM29 16.25L26 17V20L29 19.25V16.25ZM32 21.5V18.5L29 19.25V22.25L32 21.5ZM32 27.5V24.5L29 25.25V28.25L32 27.5Z" fill="#666666"/>
<path opacity="0.3" d="M20 17L25.7 18.5H26.3L30.5 17.45V26.3L26 27.5L20.3 26H19.7L15.5 27.05V18.2L20 17ZM32 15.5L26 17L20 15.5L14 17V29L20 27.5L26 29L32 27.5V15.5Z" fill="#212121"/>
<path d="M14 15.5H15.5V36.5H14V15.5Z" fill="#333333"/>
</g>
<defs>
<clipPath id="clip0_54_419">
<rect width="32" height="32" fill="white"/>
</clipPath>
</defs>
</svg>
