<svg width="32" height="32" viewBox="0 0 32 32" fill="none" xmlns="http://www.w3.org/2000/svg">
<g clip-path="url(#clip0_53_382)">
<path d="M28 18L20 20L12 18L4 20V4L12 2L20 4L28 2V18Z" fill="#CECECE"/>
<path d="M4 4V8L8 7V3L4 4ZM4 12V16L8 15V11L4 12ZM12 6L8 7V11L12 10V6ZM8 19L12 18V14L8 15V19ZM12 10V14L16 15V11L12 10ZM16 3L12 2V6L16 7V3ZM20 12V8L16 7V11L20 12ZM16 19L20 20V16L16 15V19ZM20 12V16L24 15V11L20 12ZM24 3L20 4V8L24 7V3ZM28 10V6L24 7V11L28 10ZM28 18V14L24 15V19L28 18Z" fill="#666666"/>
<path opacity="0.3" d="M12 4L19.6 6H20.4L26 4.6V16.4L20 18L12.4 16H11.6L6 17.4V5.6L12 4ZM28 2L20 4L12 2L4 4V20L12 18L20 20L28 18V2Z" fill="#212121"/>
<path d="M4 2H6V30H4V2Z" fill="#333333"/>
<path d="M15.75 26.25H11.25V12.75H30.75V26.25H22.35L15.75 30.15V26.25Z" fill="white"/>
<path d="M30 13.5V25.5H22.05L21.75 25.65L16.5 28.8V25.5H12V13.5H30ZM31.5 12H10.5V27H15V31.5L22.5 27H31.5V12Z" fill="#999999"/>
<path d="M13.5 15H28.5V16.5H13.5V15ZM13.5 18H25.5V19.5H13.5V18ZM13.5 21H22.5V22.5H13.5V21Z" fill="#B9B9B9"/>
</g>
<defs>
<clipPath id="clip0_53_382">
<rect width="32" height="32" fill="white"/>
</clipPath>
</defs>
</svg>
