<svg width="32" height="32" viewBox="0 0 32 32" fill="none" xmlns="http://www.w3.org/2000/svg">
<g clip-path="url(#clip0_54_444)">
<path d="M16 2L30 12V30H2V12L16 2Z" fill="#FFE6BB"/>
<path d="M16 4.4L28 13V28H4V13L16 4.4ZM16 2L2 12V30H30V12L16 2Z" fill="#E8A33D"/>
<path d="M6 6H26V26H6V6Z" fill="white"/>
<path d="M24 8V24H8V8H24ZM26 6H6V26H26V6Z" fill="#666666"/>
<path d="M10 14H22V16H10V14ZM10 10H22V12H10V10ZM10 18H22V20H10V18Z" fill="#B9B9B9"/>
<path d="M30 12V30H2V12L16 22L30 12Z" fill="#FFC857"/>
<path d="M16 22L2 12V30H30V12L16 22ZM4 15.8L11 20.8L4 28V15.8ZM6.8 28L12.6 22.2L16 24.4L19.2 22L25 27.8H6.8V28ZM21 21L28 15.8V28L21 21Z" fill="#E8A33D"/>
<path d="M33 27.5L27 29L21 27.5L15 29V17L21 15.5L27 17L33 15.5V27.5Z" fill="#CECECE"/>
<path d="M15 17V20L18 19.25V16.25L15 17ZM15 23V26L18 25.25V22.25L15 23ZM21 18.5L18 19.25V22.25L21 21.5V18.5ZM18 28.25L21 27.5V24.5L18 25.25V28.25ZM21 21.5V24.5L24 25.25V22.25L21 21.5ZM24 16.25L21 15.5V18.5L24 19.25V16.25ZM27 23V20L24 19.25V22.25L27 23ZM24 28.25L27 29V26L24 25.25V28.25ZM27 23V26L30 25.25V22.25L27 23ZM30 16.25L27 17V20L30 19.25V16.25ZM33 21.5V18.5L30 19.25V22.25L33 21.5ZM33 27.5V24.5L30 25.25V28.25L33 27.5Z" fill="#666666"/>
<path opacity="0.3" d="M21 17L26.7 18.5H27.3L31.5 17.45V26.3L27 27.5L21.3 26H20.7L16.5 27.05V18.2L21 17ZM33 15.5L27 17L21 15.5L15 17V29L21 27.5L27 29L33 27.5V15.5Z" fill="#212121"/>
<path d="M15 15.5H16.5V36.5H15V15.5Z" fill="#333333"/>
</g>
<defs>
<clipPath id="clip0_54_444">
<rect width="32" height="32" fill="white"/>
</clipPath>
</defs>
</svg>
