<svg width="16" height="16" viewBox="0 0 16 16" fill="none" xmlns="http://www.w3.org/2000/svg">
<g id="ShapeForm">
<g id="Clip path group">
<path id="Vector" d="M1 0H15.2222V16H1V0Z" fill="#BA26E7"/>
<path id="Vector_2" d="M4.5556 12.4444H8.11116V14.2222H4.5556V12.4444Z" fill="white"/>
<path id="Vector_3" opacity="0.5" d="M9 12.4444H12.5556V14.2222H9V12.4444Z" fill="white"/>
<path id="Vector_4" d="M4.5556 1.77779H10.7778V2.66668H4.5556V1.77779ZM4.5556 8.00001H5.44449V8.8889H4.5556V8.00001ZM4.5556 9.77779H5.44449V10.6667H4.5556V9.77779Z" fill="white"/>
<path id="Vector_5" opacity="0.5" d="M6.33338 8H13.4445V8.88889H6.33338V8ZM6.33338 9.77778H13.4445V10.6667H6.33338V9.77778ZM4.5556 3.55556H13.4445V7.11111H4.5556V3.55556Z" fill="white"/>
<path id="Vector_6" opacity="0.5" d="M1.88892 0H2.7778V16H1.88892V0Z" fill="white"/>
</g>
</g>
</svg>
